<?xml version="1.0" encoding="utf-8"?>
<!-- Generator: Adobe Illustrator 19.1.0, SVG Export Plug-In . SVG Version: 6.00 Build 0)  -->
<svg version="1.1" id="Layer_1" xmlns="http://www.w3.org/2000/svg" xmlns:xlink="http://www.w3.org/1999/xlink" x="0px" y="0px"
	 viewBox="26 -26.6 452.6 452.6" style="enable-background:new 26 -26.6 452.6 452.6;" xml:space="preserve">
<style type="text/css">
	.st0{fill:#FFFFFF;}
	.st1{fill:#CC00FF;}
	.st2{fill:#66CC00;}
	.st3{fill:#0000FF;}
	.st4{fill:#FF0000;}
	.st5{fill:#CCFF00;}
	.st6{fill:#FF9900;}
</style>
<path class="st0" d="M182.3-2.4l-5.2,3l2.3,4.1c2-0.5,4.1-0.9,6.2-1.3L182.3-2.4z"/>
<path class="st0" d="M275.4,450.6l5.2-3l-2.2-3.9c-2,0.5-4.1,0.9-6.2,1.3L275.4,450.6z"/>
<g>
	<polygon class="st0" points="212.3,269 172.3,199.6 212.3,130.4 292.3,130.4 332.3,199.6 292.3,269 	"/>
	<path class="st1" d="M37.2,133.4c-6.5,21-9.9,43.2-9.9,66.3c0,56.7,21,108.5,55.6,148.1l124.2-214.4H37.2z"/>
	<path class="st2" d="M87.1,352.5c41.1,44.4,99.9,72.3,165.2,72.3c14.7,0,29-1.4,42.9-4.1l-123-215L87.1,352.5z"/>
	<path class="st3" d="M416.2,45.6c-41-43.6-99.3-70.9-163.9-70.9c-14.9,0-29.5,1.5-43.7,4.3L332,193.1L416.2,45.6z"/>
	<path class="st4" d="M202.5-19.7C125.9-2.4,64.1,54,39.2,127.3h248L202.5-19.7z"/>
	<path class="st5" d="M467.4,266c6.5-21,9.9-43.2,9.9-66.3c0-57.4-21.5-109.7-56.8-149.5L297.5,266H467.4z"/>
	<path class="st6" d="M301.4,419.2c77-17.1,139.1-73.7,164.1-147.3H217.1L301.4,419.2z"/>
	<path class="st0" d="M292.3,127.3v6h-1.6l37.9,65.9l3.4-6L208.6-21c-2.1,0.4-4.1,0.8-6.2,1.3l84.8,147.1L292.3,127.3L292.3,127.3z"
		/>
	<path class="st0" d="M209.7,128.9l5.2,3l-0.9,1.5h76.6l-3.5-6h-248c-0.7,2-1.3,4-1.9,6h169.9L209.7,128.9z"/>
	<polygon class="st0" points="292.3,127.3 287.2,127.3 290.7,133.4 292.3,133.4 	"/>
	<path class="st0" d="M76.9,358.2l5.2,3l5.1-8.8c-1.4-1.5-2.8-3.1-4.2-4.7L76.9,358.2z"/>
	<path class="st0" d="M169.7,201.1l5.2-3l0.8,1.4l38.3-66.2h-6.9L82.9,347.8c1.4,1.6,2.8,3.1,4.2,4.7l85.1-146.9L169.7,201.1z"/>
	<polygon class="st0" points="209.7,128.9 207.1,133.4 214,133.4 214.9,131.9 	"/>
	<path class="st0" d="M212.3,272v-6h1.4l-38-66.4l-3.5,6l123,215c2.1-0.4,4.1-0.8,6.2-1.3L217.1,272H212.3L212.3,272z"/>
	<polygon class="st0" points="169.7,201.1 172.2,205.6 175.7,199.6 174.9,198.1 	"/>
	<path class="st0" d="M465.4,272h11.9v-6h-9.9C466.8,268,466.1,270,465.4,272z"/>
	<path class="st0" d="M297.5,266l-2.6,4.5l-5.2-3l0.9-1.5h-76.9l3.4,6h248.3c0.7-2,1.3-4,1.9-6H297.5z"/>
	<polygon class="st0" points="212.3,272 217.1,272 213.7,266 212.3,266 	"/>
	<path class="st0" d="M426,40.5l-5.2-3l-4.6,8.1c1.4,1.5,2.9,3.1,4.3,4.7L426,40.5z"/>
	<path class="st0" d="M334.9,198.1l-5.2,3l-1.1-1.9l-38,66.7h6.9l123-215.8c-1.4-1.6-2.8-3.1-4.3-4.7L332,193.1L334.9,198.1z"/>
	<polygon class="st0" points="334.9,198.1 332,193.1 328.6,199.2 329.7,201.1 	"/>
	<polygon class="st0" points="289.7,267.5 294.9,270.5 297.5,266 290.6,266 	"/>
</g>
</svg>
